<svg fill="none" height="42" viewBox="0 0 114 42" width="114" xmlns="http://www.w3.org/2000/svg" xmlns:xlink="http://www.w3.org/1999/xlink"><clipPath id="a"><path d="m0 0h29.2826v29.2826h-29.2826z" transform="matrix(-.866062 -.499937 -.499937 .866062 40.338 15.577)"/></clipPath><g fill="#3e3170"><path d="m65.0678 5.3242c-.0546.88353-.1036 1.80523-.1473 2.76512-.0327.94897-.0654 1.9034-.0981 2.86328-.0219.9599-.0437 1.9034-.0655 2.8306-.0109.9271-.0218 1.7998-.0327 2.6178-.0109.8181-.0164 1.5653-.0164 2.2416v1.718 2.0288c0 .7417.0055 1.5053.0164 2.2906.0109.7854.0218 1.5762.0327 2.3725.0218.7853.0491 1.5271.0818 2.2252-.469-.0218-.8999-.0327-1.2925-.0327-.3818 0-.7309 0-1.0472 0-.5672 0-1.0362.0054-1.4071.0163s-.6654.0273-.8835.0491c-.2618.0218-.4636.0436-.6054.0654-.0327-.229-.1036-.5835-.2127-1.0635-.0982-.4908-.2291-1.0689-.3927-1.7343-.1527-.6654-.3327-1.4016-.5399-2.2088-.2073-.8072-.4309-1.6471-.6709-2.5197-.229-.8726-.469-1.7562-.7199-2.6506-.2508-.9054-.5017-1.7834-.7526-2.6342-.24-.8618-.4799-1.6744-.7199-2.4379-.2291-.7745-.4418-1.4671-.6381-2.078-.0873 1.3962-.1527 2.6888-.1964 3.8778-.0436 1.178-.0763 2.2088-.0981 3.0923-.0328 1.0253-.0491 1.9634-.0491 2.8142 0 .7308.0163 1.5053.0491 2.3234.0218.6981.06 1.4943.1145 2.3888.0654.8944.1582 1.8052.2781 2.7324-.8399-.0327-1.5325-.0491-2.0779-.0491-.5345-.0109-.9599-.0164-1.2762-.0164h-.8017c.0545-1.9525.0982-3.6104.1309-4.9739s.0545-2.5034.0654-3.4196c.0218-.9272.0327-1.6689.0327-2.2252.011-.5563.0164-1.0035.0164-1.3416 0-.3491-.0054-.6272-.0164-.8345 0-.2072 0-.4199 0-.6381 0-.5454-.0054-1.1944-.0163-1.947 0-.7527-.0109-1.5599-.0327-2.4216-.0219-.8726-.0546-1.77793-.0982-2.716s-.1036-1.86523-.18-2.78148c1.1126 0 2.0289-.01091 2.7488-.03273.7199-.02181 1.2925-.04363 1.7179-.06544.5018-.03273.889-.06545 1.1617-.09817.0546.34904.1636.89443.3273 1.63616.1745.74173.3763 1.60345.6053 2.58515.24.97081.5073 2.02341.8018 3.15781s.5944 2.2797.8999 3.4359c.3163 1.1454.6326 2.2634.9489 3.3542.3164 1.0799.6163 2.0561.8999 2.9287.0546-.9271.0927-1.8707.1146-2.8306.0327-.9707.0545-1.8761.0654-2.716.0218-.8399.0327-1.5707.0327-2.1925 0-.6326 0-1.0689 0-1.3089-.0109-.9926-.0327-1.9852-.0654-2.9778-.0109-.4254-.0273-.86718-.0491-1.3253-.0218-.45813-.0491-.91626-.0818-1.37438-.0218-.46904-.0546-.92716-.0982-1.37438-.0327-.44722-.0709-.86717-.1145-1.25985z"/><path d="m73.2813 30.2757c-1.0798 0-2.0124-.2345-2.7978-.7035-.7745-.469-1.418-1.1235-1.9307-1.9634-.5017-.8399-.8726-1.838-1.1126-2.9942-.2399-1.1562-.3599-2.4161-.3599-3.7795 0-1.5817.1418-3.0324.4254-4.3522.2836-1.3199.6981-2.4543 1.2435-3.4033.5563-.949 1.238-1.6852 2.0452-2.2088.8181-.5345 1.7561-.8017 2.8142-.8017 1.0689 0 1.9906.2236 2.7651.6708s1.4126 1.0744 1.9143 1.8816c.5127.8072.889 1.7725 1.129 2.896.2399 1.1235.3599 2.3615.3599 3.7141 0 .6981-.0436 1.4562-.1309 2.2743-.0763.8181-.2127 1.6362-.409 2.4542-.1854.8181-.4363 1.6089-.7526 2.3725-.3164.7526-.7145 1.4234-1.1944 2.0125-.48.589-1.0526 1.058-1.718 1.4071-.6545.349-1.418.5235-2.2907.5235zm2.5525-12.2549c0-.8289-.0382-1.5707-.1146-2.2251-.0763-.6654-.2018-1.2272-.3763-1.6853-.1636-.4581-.3763-.8072-.6381-1.0471-.2509-.2509-.5563-.3764-.9162-.3764-.3927 0-.7581.2073-1.0963.6218-.3381.4145-.6381 1.0144-.8999 1.7998-.2508.7853-.4526 1.7452-.6053 2.8796-.1418 1.1235-.2128 2.3943-.2128 3.8123 0 .9162.0437 1.7398.1309 2.4706.0873.7199.2182 1.3362.3927 1.8489.1745.5017.3873.889.6381 1.1617.2618.2617.5672.3926.9163.3926.349 0 .6599-.1418.9326-.4254.2727-.2945.5072-.6872.7035-1.178.2073-.4909.3818-1.0581.5236-1.7016.1527-.6545.2727-1.3362.36-2.0452.0872-.7199.1527-1.4508.1963-2.1925.0437-.7417.0655-1.4453.0655-2.1107z"/><path d="m87.4506 4.47339c-.0873 1.1235-.1582 2.23064-.2128 3.32142-.0545 1.07987-.109 2.16519-.1636 3.25599.48-.0218.9545-.0382 1.4235-.0491.469-.0218.949-.0491 1.4398-.0818l.0655 4.1886c-.5236-.0873-1.0417-.1582-1.5544-.2127-.5127-.0546-1.0144-.0982-1.5053-.1309-.0327.9271-.0545 1.8434-.0654 2.7487v2.7488c0 1.658.0164 3.3051.0491 4.9412.0436 1.6362.1091 3.2833.1963 4.9412l-4.2704-.0654c.1418-2.5633.2564-5.1212.3436-7.6736.0982-2.5634.1636-5.143.1964-7.7391-.4582.0218-.9163.0491-1.3744.0818-.4582.0218-.9272.0491-1.4071.0818l.1309-3.8777c.4472.0327.889.06 1.3253.0818.4472.0109.8889.0273 1.3253.0491 0-1.09078-.011-2.1761-.0328-3.25597-.0218-1.09078-.0436-2.18701-.0654-3.28869z"/><path d="m97.1694 4.47339c-.0873 1.1235-.1582 2.23064-.2127 3.32142-.0546 1.07987-.1091 2.16519-.1636 3.25599.4799-.0218.9544-.0382 1.4234-.0491.4691-.0218.949-.0491 1.4399-.0818l.0654 4.1886c-.5236-.0873-1.0417-.1582-1.5544-.2127-.5126-.0546-1.0144-.0982-1.5052-.1309-.0328.9271-.0546 1.8434-.0655 2.7487v2.7488c0 1.658.0164 3.3051.0491 4.9412.0436 1.6362.1091 3.2833.1963 4.9412l-4.2703-.0654c.1418-2.5633.2563-5.1212.3435-7.6736.0982-2.5634.1637-5.143.1964-7.7391-.4581.0218-.9163.0491-1.3744.0818-.4581.0218-.9272.0491-1.4071.0818l.1309-3.8777c.4472.0327.889.06 1.3253.0818.4472.0109.889.0273 1.3253.0491 0-1.09078-.0109-2.1761-.0327-3.25597-.0219-1.09078-.0437-2.18701-.0655-3.28869z"/><path d="m113.662 11.6889c-.066.6435-.12 1.298-.164 1.9634-.043.6545-.087 1.3089-.131 1.9634-.032.6545-.065 1.2926-.098 1.9143-.032.6108-.06 1.1944-.082 1.7507-.054 1.298-.098 2.5524-.13 3.7632-.066 1.2871-.104 2.5633-.115 3.8286 0 1.2544-.038 2.4488-.115 3.5832-.076 1.1453-.223 2.2034-.441 3.1742-.208.9817-.551 1.827-1.031 2.536-.48.72-1.129 1.2817-1.947 1.6853-.807.4036-1.849.6054-3.125.6054-.96 0-1.729-.1418-2.307-.4254-.567-.2727-1.004-.6109-1.309-1.0145-.306-.3926-.507-.8126-.605-1.2598-.088-.4472-.131-.8454-.131-1.1944 0-.3709.054-.7199.163-1.0472.12-.3163.284-.5944.491-.8344s.458-.4309.753-.5727c.305-.1418.649-.2127 1.031-.2127.403 0 .763.0764 1.079.2291.317.1527.578.3491.786.589.218.2509.382.5291.491.8345s.163.6108.163.9162c-.011.1745-.049.3545-.114.54-.055.1527-.153.3217-.295.5072-.131.1963-.316.3872-.556.5726.131.0546.251.0873.36.0982.12.0218.234.0327.343.0327.284 0 .579-.0872.884-.2618.316-.1636.605-.4254.867-.7853.262-.36.48-.8127.655-1.358.174-.5454.272-1.1944.294-1.9471 0-.8181 0-1.6198 0-2.4051.011-.7854.027-1.6526.049-2.6016-.371.7091-.769 1.2599-1.194 1.6526-.426.3817-.829.6654-1.211.8508-.436.2181-.878.349-1.325.3927-.807 0-1.511-.2018-2.111-.6054s-1.096-.9763-1.489-1.718-.687-1.6307-.883-2.6669c-.186-1.0472-.279-2.2143-.279-3.5014 0-3.5669.246-6.9701.737-10.2097l4.156.4581c-.088.36-.175.7526-.262 1.178-.077.4254-.147.8672-.213 1.3253-.065.4582-.125.9217-.18 1.3908-.043.4581-.087.8999-.131 1.3253-.098 1.0035-.18 2.0234-.245 3.0596 0 1.0362.033 1.9416.098 2.716.065.7636.18 1.4017.344 1.9144.174.5017.409.878.703 1.1289.295.2509.671.3763 1.129.3763.327-.0545.644-.2836.949-.6872.131-.1745.267-.3926.409-.6544s.284-.5836.426-.9654c.141-.3817.278-.829.409-1.3416.13-.5236.25-1.129.36-1.8162.032-.8508.054-1.6252.065-2.3233.022-.709.033-1.3853.033-2.0289 0-.7744-.017-1.5161-.049-2.2252-.033-.7199-.082-1.4725-.148-2.2579z"/></g><g clip-path="url(#a)"><g fill="#818181"><path d="m29.8505 17.2714c.5833.3367 1.3299.1366 1.6667-.4467l2.1349-3.6984c.3367-.5833.1366-1.33-.4467-1.6667s-1.33-.1366-1.6667.4467l-2.1349 3.6984c-.3367.5833-.1366 1.33.4467 1.6667z"/><path d="m24.8312 14.374c.5833.3367 1.33.1366 1.6667-.4467l2.1349-3.6984c.3367-.58332.1366-1.32999-.4467-1.6667s-1.33-.13658-1.6667.44671l-2.1349 3.69839c-.3367.5833-.1366 1.33.4467 1.6667z"/><path d="m19.8119 11.4766c.5833.3367 1.33.1366 1.6667-.4467l2.1349-3.6984c.3367-.58329.1366-1.32996-.4467-1.66667s-1.3299-.13658-1.6667.44671l-2.1349 3.69841c-.3367.58325-.1366 1.32995.4467 1.66665z"/></g><path d="m19.681 6.82242 14.2653 8.23468c1.603.9254 2.1538 2.9804 1.2285 4.5834l-9.9122 17.1712c-.9253 1.6029-2.9803 2.1537-4.5833 1.2284l-14.26532-8.2347c-1.603-.9253-2.15379-2.9803-1.22846-4.5833l9.91218-17.17122c.9253-1.603 2.9803-2.15379 4.5833-1.22846zm8.3804 12.93818-5.2835-3.0499c-.5833-.3367-1.3299-.1365-1.6666.4468-.3367.5832-.1366 1.3299.4467 1.6666l5.2834 3.0499c.5833.3367 1.33.1366 1.6667-.4467s.1366-1.33-.4467-1.6667zm-16.6667 4.4671 10.5669 6.0998c.5833.3367 1.33.1366 1.6667-.4467s.1365-1.3299-.4467-1.6667l-10.5669-6.0997c-.5833-.3367-1.33-.1366-1.6667.4467s-.1366 1.3299.4467 1.6666zm2.4399-4.2267 10.5669 6.0998c.5833.3367 1.33.1365 1.6667-.4467.3367-.5833.1366-1.33-.4467-1.6667l-10.5669-6.0998c-.5833-.3367-1.33-.1366-1.6667.4467s-.1366 1.33.4467 1.6667z" fill="#ff9f2e"/></g><ellipse cx="22.8074" cy="40.9375" fill="#c8c8c8" rx="6.43539" ry="1.05498"/></svg>