<svg width="80" height="80" viewBox="0 0 80 80" fill="none" xmlns="http://www.w3.org/2000/svg">
<g clip-path="url(#clip0)">
<path d="M0.535167 57.1156C0.428702 57.7199 0.566489 58.3421 0.918594 58.8449C1.27055 59.3478 1.80812 59.6902 2.41265 59.7966L12.6853 61.6079L6.21422 24.9081L0.535167 57.1156Z" fill="#DEDEDE"/>
<path d="M12.8744 0.537347C12.2685 0.427334 11.6433 0.563115 11.1377 0.914912C10.6322 1.26686 10.2877 1.80582 10.1807 2.41252L7.72618 16.3332L54.4277 8.09836L12.8744 0.537347Z" fill="#DEDEDE"/>
<path d="M79.465 67.138L69.8193 12.435C69.5974 11.1763 68.3974 10.3363 67.138 10.5577L12.4352 20.2033C11.1764 20.4251 10.3358 21.6256 10.5577 22.8843L20.2032 77.5873C20.3099 78.1919 20.6522 78.7293 21.1551 79.0814C21.5469 79.3557 22.0108 79.5 22.4827 79.5C22.6164 79.5 22.751 79.4884 22.8845 79.4648L77.5875 69.8193C78.192 69.7128 78.7295 69.3703 79.0816 68.8676C79.4337 68.3647 79.5715 67.7426 79.465 67.138ZM22.89 39.5112C22.6681 38.2524 23.5087 37.052 24.7675 36.8301L61.2363 30.3997C62.4962 30.1778 63.6957 31.0182 63.9176 32.277C64.1394 33.5357 63.2988 34.7362 62.0401 34.958L25.5712 41.3887C25.4353 41.4126 25.3 41.4242 25.1667 41.4242C24.0645 41.4242 23.088 40.6342 22.89 39.5112ZM53.0989 55.336L28.7865 59.623C28.6505 59.6469 28.5152 59.6585 28.3819 59.6585C27.2798 59.6585 26.3032 58.8685 26.1052 57.7455C25.8834 56.4868 26.724 55.2864 27.9827 55.0645L52.2951 50.7775C53.5548 50.5555 54.7543 51.3961 54.9764 52.6548C55.1982 53.9136 54.3576 55.114 53.0989 55.336ZM63.6475 44.0753L27.1787 50.5058C27.0428 50.5297 26.9074 50.5413 26.7741 50.5413C25.672 50.5413 24.6954 49.7513 24.4975 48.6283C24.2756 47.3695 25.1162 46.1691 26.375 45.9472L62.8438 39.5168C64.1035 39.2949 65.303 40.1353 65.525 41.3941C65.7469 42.653 64.9063 43.8534 63.6475 44.0753Z" fill="#DEDEDE"/>
</g>
<defs>
<clipPath id="clip0">
<rect width="79" height="79" fill="white" transform="translate(0.5 0.5)"/>
</clipPath>
</defs>
</svg>
